<svg width="312" height="287" viewBox="0 0 312 287" fill="none" xmlns="http://www.w3.org/2000/svg">
<path d="M114.151 18.6255C136.14 -6.20849 175.442 -6.20848 197.431 18.6255C207.503 29.9995 222.004 36.7199 237.194 36.932L243.642 37.022C274.682 37.4554 297.382 66.5683 290.459 96.8293C287.101 111.504 290.768 126.973 300.399 138.543C320.672 162.896 312.377 199.846 283.64 213.197L281.024 214.413C267.391 220.747 257.245 232.996 253.424 247.535C245.37 278.175 211.833 294.907 182.731 282.387L178.012 280.357C163.827 274.255 147.756 274.255 133.571 280.357L128.852 282.387C99.7496 294.907 66.2126 278.175 58.159 247.535C54.3377 232.996 44.1916 220.747 30.5585 214.413L27.9424 213.197C-0.794712 199.846 -9.08945 162.896 11.1838 138.543C20.8152 126.973 24.4815 111.504 21.1242 96.8293C14.2012 66.5683 36.9008 37.4554 67.9406 37.022L74.3885 36.932C89.5789 36.7199 104.08 29.9995 114.151 18.6255Z" fill="#FFEEC1"/>
</svg>
